<?xml version="1.0" encoding="UTF-8" standalone="no"?>
<!-- Created with Inkscape (http://www.inkscape.org/) -->

<svg
   xmlns:dc="http://purl.org/dc/elements/1.1/"
   xmlns:cc="http://creativecommons.org/ns#"
   xmlns:rdf="http://www.w3.org/1999/02/22-rdf-syntax-ns#"
   xmlns:svg="http://www.w3.org/2000/svg"
   xmlns="http://www.w3.org/2000/svg"
   xmlns:xlink="http://www.w3.org/1999/xlink"
   xmlns:sodipodi="http://sodipodi.sourceforge.net/DTD/sodipodi-0.dtd"
   xmlns:inkscape="http://www.inkscape.org/namespaces/inkscape"
   width="1024"
   height="1024"
   viewBox="0 0 270.93333 270.93334"
   version="1.1"
   id="svg8"
   inkscape:version="0.92.4 (unknown)"
   sodipodi:docname="icon_project.svg"
   inkscape:export-filename="/home/luizcarlos1405/Documentos/Disciplinas/Estágio Obrigatório/moodlemobile2/resources/android/icon.png"
   inkscape:export-xdpi="96"
   inkscape:export-ydpi="96">
  <defs
     id="defs2">
    <radialGradient
       gradientTransform="matrix(0.37481698,0,0,0.374817,6.8814055e-7,185.67933)"
       inkscape:collect="always"
       xlink:href="#linearGradient985"
       id="radialGradient987"
       cx="361.42084"
       cy="-64.420837"
       fx="361.42084"
       fy="-64.420837"
       r="361.42084"
       gradientUnits="userSpaceOnUse" />
    <linearGradient
       inkscape:collect="always"
       id="linearGradient985">
      <stop
         style="stop-color:#00783e;stop-opacity:1"
         offset="0"
         id="stop981" />
      <stop
         style="stop-color:#005233;stop-opacity:1"
         offset="1"
         id="stop983" />
    </linearGradient>
  </defs>
  <sodipodi:namedview
     id="base"
     pagecolor="#ffffff"
     bordercolor="#666666"
     borderopacity="1.0"
     inkscape:pageopacity="0.0"
     inkscape:pageshadow="2"
     inkscape:zoom="0.35000001"
     inkscape:cx="144.86009"
     inkscape:cy="423.75222"
     inkscape:document-units="px"
     inkscape:current-layer="layer1"
     showgrid="false"
     units="px"
     inkscape:window-width="1366"
     inkscape:window-height="741"
     inkscape:window-x="0"
     inkscape:window-y="27"
     inkscape:window-maximized="1"
     inkscape:snap-bbox="true"
     inkscape:snap-page="true" />
  <metadata
     id="metadata5">
    <rdf:RDF>
      <cc:Work
         rdf:about="">
        <dc:format>image/svg+xml</dc:format>
        <dc:type
           rdf:resource="http://purl.org/dc/dcmitype/StillImage" />
        <dc:title />
      </cc:Work>
    </rdf:RDF>
  </metadata>
  <g
     inkscape:label="Camada 1"
     inkscape:groupmode="layer"
     id="layer1"
     transform="translate(0,-26.06665)">
    <rect
       style="opacity:1;fill:url(#radialGradient987);fill-opacity:1;stroke:none;stroke-width:8.27243423;stroke-linecap:round;stroke-linejoin:miter;stroke-miterlimit:4;stroke-dasharray:none;stroke-opacity:0.98039216"
       id="rect973"
       width="270.93335"
       height="270.93335"
       x="0"
       y="26.066635" />
    <g
       id="g902"
       transform="translate(-60.937451,10.690781)">
      <path
         sodipodi:nodetypes="ccccccccccccccccccc"
         inkscape:connector-curvature="0"
         id="path846"
         d="m -214.38224,-19.858338 c -6.49265,-1.412544 -12.13529,-5.651842 -13.62406,-10.23575 -0.47518,-1.462973 -0.72978,-8.363413 -0.87925,-23.829435 l -0.21049,-21.770134 h 5.89574 5.89578 l 0.15174,20.519173 0.15174,20.519173 c 1.09564,5.666653 12.1655,5.924368 16.6949,5.951051 l 8.1471,0.02423 v -23.50642 -23.506389 h 5.87661 5.87657 v 28.314515 28.314546 l -15.35929,-0.0424 c -10.62134,-0.03029 -16.36425,-0.261078 -18.61715,-0.751249 z"
         style="fill:#005d37;fill-opacity:1;stroke-width:0.53423619" />
      <path
         sodipodi:nodetypes="cccscccccccccccccscc"
         inkscape:connector-curvature="0"
         id="path844"
         d="m -168.48807,-37.896427 c 0.16053,-10.357506 0.5496,-20.01201 0.86471,-21.454418 1.38008,-6.317135 4.82091,-10.968645 9.88442,-13.36238 4.99242,-2.360146 9.83226,-2.980432 23.25494,-2.980432 h 12.30995 v 4.772599 4.772629 l -12.42098,0.169003 c -12.39234,0.168701 -12.42808,0.172639 -15.49356,1.677892 -3.67849,1.806311 -5.62083,4.663019 -6.23181,9.165515 l -0.40016,2.948691 16.47193,0.06694 c 9.05954,0.03665 17.80748,0.133568 17.80748,0.133568 v 9.683035 h -16.96225 -16.96228 V -19.0645 h -6.50992 -5.90422 z"
         style="fill:#005d37;fill-opacity:1;stroke-width:0.53423619" />
      <path
         id="path842"
         d="m -217.37686,44.767508 c -6.59448,-1.772964 -11.79864,-6.680282 -14.43086,-13.607738 -2.51286,-6.613286 -2.57138,-18.669249 -0.12873,-26.5175036 1.21298,-3.89732297 4.1502,-8.4232005 6.84599,-10.548801 2.38404,-1.8797879 7.08937,-3.8541028 10.91389,-4.5794254 1.52827,-0.289851 9.59744,-0.526971 17.93146,-0.526971 h 15.15282 v 4.808126 4.8081259 l -14.29081,0.003 c -8.72234,0.00182 -15.12349,0.2316987 -16.42775,0.5900593 -3.05482,0.83923376 -6.21743,4.3166218 -7.50837,8.2557717 -1.57365,4.8016451 -1.45053,16.4003891 0.21897,20.6355071 1.37348,3.484082 3.8973,5.984974 6.87406,6.811638 1.10989,0.308205 5.80437,0.561741 10.43218,0.563376 l 8.41424,0.003 V 28.78769 22.109711 h -8.01353 -8.01355 V 17.03448 11.95925 h 14.15726 14.15724 v 16.82844 16.828441 l -16.69488,-0.03513 c -12.84944,-0.02726 -17.36163,-0.214435 -19.58969,-0.813429 z"
         style="fill:#005d37;fill-opacity:1;stroke-width:0.53423619"
         inkscape:connector-curvature="0" />
      <path
         id="path840"
         d="m -170.40712,-11.092223 v 28.354162 28.354192 l 16.69384,-0.0061 c 12.21979,-0.0061 17.41196,-0.197777 19.3671,-0.719962 8.58631,-2.293605 14.44323,-8.881661 16.30412,-18.340357 0.99733,-5.069264 0.43399,-17.1675993 -1.00639,-21.614669 -2.34634,-7.2442025 -6.7207,-11.8565203 -13.69502,-14.4368862 -3.01472,-1.1153038 -4.23036,-1.1968368 -20.43454,-1.3867388 z m 11.75268,9.6960891 h 8.79611 c 9.9309,0 12.75358,0.60311309 15.62328,3.3400043 2.55383,2.435683 3.42869,5.5476535 3.75322,13.3491136 0.47369,11.387823 -1.24961,16.785069 -6.12755,19.187133 -2.32558,1.145198 -3.35246,1.266287 -11.90606,1.418027 -5.14871,0.09116 -9.53732,-0.0091 -9.75085,-0.22231 -0.21377,-0.213526 -0.38815,-8.641936 -0.38815,-18.730096 z"
         style="fill:#ffd326;fill-opacity:1;stroke-width:0.53423625"
         inkscape:connector-curvature="0" />
    </g>
    <g
       transform="translate(63.218815,169.77801)"
       id="g954">
      <g
         id="g903">
        <path
           style="fill:#000000;stroke-width:0.66543829"
           d="m -469.83545,38.209572 c -0.48247,0.0069 -0.82461,0.0526 -0.91043,0.138344 -0.17165,0.171883 -0.31388,2.381404 -0.31388,4.908938 v 4.595017 l -1.75262,-1.378256 c -2.75061,-2.163705 -6.94627,-1.880229 -9.84707,0.66667 -4.96054,4.355459 -4.03675,13.925392 1.61813,16.750377 3.02503,1.511111 5.15238,1.46829 7.81954,-0.157908 1.76466,-1.075814 2.16202,-1.135903 2.16202,-0.329492 0,0.70959 0.7524,0.988376 2.66305,0.988376 h 2.66109 V 51.487759 38.585777 l -2.34917,-0.274893 c -0.64609,-0.07546 -1.26819,-0.1083 -1.75066,-0.101312 z m -6.05523,11.227273 c 0.58615,-0.02633 1.19293,0.07037 1.79744,0.300247 3.31771,1.261372 4.19479,6.677573 1.49333,9.215388 -4.10945,3.860673 -9.72955,-0.835757 -7.47054,-6.242376 0.83977,-2.00989 2.42131,-3.194204 4.17977,-3.273259 z"
           id="path949"
           inkscape:connector-curvature="0" />
        <path
           style="fill:#000000;stroke-width:0.66543829"
           d="m -454.92937,45.257061 c -2.25268,0.05799 -4.32261,0.407947 -4.93037,1.015725 -0.34405,0.343964 -0.43229,1.391531 -0.19692,2.3297 0.40936,1.630989 0.58629,1.68998 4.03939,1.333438 2.89801,-0.299149 3.87035,-0.136548 4.93037,0.822681 2.37064,2.14554 1.64989,2.737447 -2.9789,2.442791 -4.06904,-0.259123 -4.41001,-0.165495 -6.32228,1.746775 -3.11418,3.114151 -2.33462,7.884145 1.54399,9.449356 2.19809,0.886963 4.56013,0.753209 6.73757,-0.382095 1.27951,-0.666969 2.06495,-0.784651 2.21661,-0.329492 0.1294,0.388084 1.40898,0.705698 2.84244,0.705698 h 2.6065 v -6.343689 c 0,-7.967592 -0.97547,-10.599234 -4.46637,-12.057841 -1.33493,-0.55777 -3.76944,-0.791039 -6.02207,-0.733047 z m 1.63563,10.669803 c 1.94068,-0.1086 3.52867,0.721967 3.52867,2.115196 0,0.841147 -0.37688,1.841101 -0.83634,2.222497 -1.35228,1.122328 -4.06351,1.510411 -5.31834,0.762193 -1.84806,-1.101866 -1.48427,-3.867361 0.6141,-4.665188 0.67974,-0.258425 1.36503,-0.398564 2.01191,-0.434698 z"
           id="path945"
           inkscape:connector-curvature="0" />
        <path
           style="fill:#000000;stroke-width:0.66543823"
           d="m -423.50766,63.806133 c -7.68252,-3.489659 -9.95964,-13.588622 -4.52126,-20.051739 3.9026,-4.637951 11.96336,-6.155917 17.55136,-3.305142 1.44938,0.739422 2.63521,1.546524 2.63521,1.793552 0,0.247102 -0.80243,1.286708 -1.78318,2.310393 -1.64054,1.712328 -1.87598,1.777292 -2.94283,0.811818 -3.09565,-2.801506 -9.57895,-1.473715 -11.56596,2.368754 -1.77212,3.426921 -1.32006,7.022174 1.23329,9.808362 2.01587,2.199669 2.5824,2.447224 5.60022,2.447224 3.91268,0 5.6155,-1.113283 5.33312,-3.486716 -0.1758,-1.476468 -0.52408,-1.685958 -2.86175,-1.72059 -2.56784,-0.0381 -2.66177,-0.118082 -2.66177,-2.268631 V 50.28421 h 5.32354 5.3235 v 5.55642 5.556382 l -3.61287,1.829957 c -4.32709,2.191708 -9.04016,2.400859 -13.05062,0.579164 z"
           id="path941"
           inkscape:connector-curvature="0" />
        <path
           style="fill:#000000;stroke-width:0.66543829"
           d="m -380.91953,45.128399 c -0.94914,-0.01207 -1.97811,0.06688 -3.09584,0.235864 -4.03985,0.610873 -4.71518,1.150177 -3.95169,3.15827 0.59229,1.557924 0.86332,1.638675 4.59502,1.368574 3.56862,-0.258123 4.0746,-0.131859 5.0532,1.265264 0.59806,0.853824 1.08586,1.731004 1.08586,1.947505 0,0.216601 -1.72052,0.273495 -3.82497,0.126765 -4.99657,-0.348554 -7.30708,0.587216 -8.50188,3.446737 -1.21039,2.896853 -0.26182,6.006711 2.24976,7.371193 2.31583,1.257279 5.28386,1.245301 7.73572,-0.03312 1.2795,-0.666969 2.06691,-0.784652 2.21857,-0.329492 0.1294,0.388083 1.25856,0.705697 2.50902,0.705697 h 2.27316 V 57.08293 c 0,-7.038107 -0.0687,-7.385566 -1.8306,-9.340157 -1.5509,-1.720524 -3.66788,-2.578241 -6.51533,-2.614374 z m 0.44256,10.78479 c 1.40728,0.09812 2.70021,0.696914 3.05294,1.616117 0.26899,0.701006 -0.22522,1.632985 -1.39781,2.641623 -2.18548,1.88003 -3.11508,1.940219 -5.1019,0.331488 -1.79891,-1.456711 -1.42003,-3.09808 0.96695,-4.185673 0.74844,-0.340972 1.63544,-0.462446 2.47982,-0.403555 z"
           id="path939"
           inkscape:connector-curvature="0" />
        <path
           style="fill:#000000;stroke-width:0.66543829"
           d="m -331.98252,38.106262 v 4.491708 c 2.2e-4,2.47044 -0.22447,4.481527 -0.49908,4.470248 -0.27464,-0.0117 -1.08118,-0.460849 -1.79162,-0.998157 -1.69106,-1.279139 -5.90486,-1.245501 -8.44145,0.06628 -2.29429,1.18641 -4.53534,5.479485 -4.55798,8.729984 -0.0264,3.961587 2.51144,8.261648 5.64191,9.556558 2.34834,0.971307 5.42902,0.672259 7.16843,-0.696015 2.02478,-1.59266 2.47979,-1.654346 2.47979,-0.333386 0,0.721668 0.74183,0.998158 2.67671,0.998158 h 2.67474 l -0.17919,-13.073466 -0.18146,-13.071569 -2.4954,-0.07017 z m -5.10971,11.194135 c 0.56912,-0.01705 1.1415,0.108997 1.68829,0.401559 3.58986,1.921253 4.46943,6.381719 1.78771,9.063368 -0.89833,0.898342 -2.40882,1.633684 -3.35709,1.633684 -2.19299,0 -4.99076,-2.7624 -4.99076,-4.928401 0,-3.351513 2.40565,-6.096346 4.87185,-6.17021 z"
           id="path935"
           inkscape:connector-curvature="0" />
        <path
           style="fill:#000000;stroke-width:0.66543829"
           d="m -313.63357,45.19278 c -0.34557,7.99e-4 -0.69879,0.01818 -1.05666,0.0526 -5.45724,0.524332 -8.64226,4.209229 -8.64226,9.99914 0,3.643375 2.07876,7.008762 5.33784,8.646139 v 0.0019 c 3.80267,1.910573 9.52395,1.115441 11.81019,-1.64147 0.70532,-0.85053 0.56849,-1.19729 -0.83241,-2.115195 -1.55101,-1.016823 -1.79797,-1.018021 -3.3337,-0.01177 -1.85942,1.218351 -4.57473,0.850331 -6.49387,-0.879177 -2.33393,-2.103117 -1.38845,-2.511363 5.48984,-2.370623 l 6.6557,0.136446 -0.004,-2.797536 c -0.004,-5.340042 -3.74513,-9.033024 -8.93079,-9.020447 z m -0.15203,3.893213 c 1.76737,0 3.76256,1.880728 3.76256,3.546154 0,0.915509 -0.70539,1.113144 -3.99261,1.113144 -3.10539,0 -3.99262,-0.221789 -3.99262,-0.998157 0,-1.519894 2.46929,-3.661141 4.22267,-3.661141 z"
           id="path931"
           inkscape:connector-curvature="0" />
        <path
           style="fill:#000000;stroke-width:0.66543829"
           d="m -253.35035,45.093364 c -8.12648,0 -12.76153,6.92252 -9.52927,14.229531 1.09276,2.47044 1.96471,3.378663 4.2324,4.407863 5.083,2.306941 10.01386,1.362285 13.30749,-2.551889 5.41914,-6.440311 0.61553,-16.085505 -8.01062,-16.085505 z m -0.27879,4.427326 c 1.31417,-0.06618 2.64366,0.413437 3.68458,1.454316 2.06307,2.062891 2.00293,6.452788 -0.11129,8.164627 -5.16667,4.183777 -11.52687,-2.733254 -7.17032,-7.798104 0.98298,-1.142691 2.28267,-1.754661 3.59688,-1.820839 z"
           id="path927"
           inkscape:connector-curvature="0" />
        <path
           style="fill:#000000;stroke-width:0.66543823"
           d="m -237.37023,63.302005 c -2.24935,-2.074796 -2.3769,-2.832327 -2.20389,-13.091171 l 0.0875,-5.197309 2.43549,0.206736 2.43553,0.206359 -0.14562,5.372583 c -0.0826,3.040346 0.19542,6.121134 0.64006,7.097059 0.97954,2.149833 3.1187,2.764949 5.10031,1.466546 1.40532,-0.920807 1.51216,-1.459831 1.51216,-7.629858 v -6.639032 h 2.66173 2.66177 v 9.648858 9.648821 h -2.66177 c -2.03315,0 -2.66173,-0.25993 -2.66173,-1.101287 0,-1.005199 -0.11167,-1.000295 -1.27924,0.05621 -0.70358,0.636734 -2.45779,1.315757 -3.89826,1.508988 -2.22374,0.29841 -2.93068,0.06376 -4.68413,-1.553655 z"
           id="path923"
           inkscape:connector-curvature="0" />
        <path
           style="fill:#000000;stroke-width:0.66543829"
           d="m -196.37933,45.118617 c -1.63782,-0.0572 -3.31472,0.13565 -4.77048,0.616063 -2.55512,0.843343 -2.59541,0.906227 -2.00218,3.117345 0.35161,1.31088 0.70661,1.398518 4.30454,1.072221 4.15491,-0.376804 5.94216,0.356839 5.94216,2.436901 0,0.951543 -0.60957,1.076014 -4.16027,0.851927 -3.47321,-0.218997 -4.45076,-0.03154 -5.93632,1.140495 -3.36041,2.651006 -2.94014,7.961602 0.77983,9.843129 2.32345,1.17513 5.40284,1.063636 7.29704,-0.263114 1.13728,-0.79663 1.67898,-0.89405 1.86572,-0.333385 0.14487,0.434697 1.46308,0.791439 2.92819,0.791439 h 2.66306 l -0.2241,-7.640196 c -0.21239,-7.260896 -0.31161,-7.727335 -2.00994,-9.424003 -1.32413,-1.322758 -3.94742,-2.113398 -6.67714,-2.208822 z m 0.93382,10.712724 c 1.42641,0.08714 2.54022,0.886763 2.54022,2.169794 0,0.863206 -0.37688,1.882026 -0.83634,2.263422 -1.68622,1.399416 -4.2533,1.605036 -5.42359,0.434697 -1.48152,-1.481465 -1.11996,-3.022819 0.98645,-4.205137 0.90863,-0.509958 1.87738,-0.71508 2.73326,-0.662776 z"
           id="path921"
           inkscape:connector-curvature="0" />
        <path
           style="fill:#000000;stroke-width:0.66543829"
           d="m -168.73508,38.273853 c -0.2471,-0.09143 -0.37613,1.853578 -0.28672,4.324117 0.0894,2.47034 -0.0151,4.491708 -0.23767,4.491708 -0.22107,0 -1.14674,-0.487001 -2.0548,-1.082002 -2.15821,-1.41409 -7.73409,-0.943958 -9.71254,0.818788 -4.88762,4.354561 -3.89985,14.36029 1.69999,17.220111 2.43531,1.243804 6.61617,0.944157 8.31862,-0.596499 1.46594,-1.326651 2.12999,-1.349908 1.63371,-0.0566 -0.30633,0.798226 0.23088,0.998158 2.68252,0.998158 h 3.06468 V 51.415592 38.439547 h -2.32775 c -1.28098,0 -2.53252,-0.07436 -2.78004,-0.165694 z m -5.35338,11.061679 c 0.71264,0.01558 1.46051,0.240056 2.20687,0.729054 3.19242,2.091839 3.62212,6.31654 0.91821,9.020448 -1.78277,1.782609 -4.36192,1.65235 -6.33399,-0.319709 -3.4972,-3.497144 -0.63926,-9.514436 3.20891,-9.429793 z"
           id="path917"
           inkscape:connector-curvature="0" />
        <path
           style="fill:#000000;stroke-width:0.66543829"
           d="m -149.98454,45.09526 c -10.65402,0 -14.34653,13.973704 -4.9771,18.834331 4.9954,2.591615 12.34518,0.234566 14.36799,-4.606696 2.95566,-7.073841 -1.76582,-14.227635 -9.39089,-14.227635 z m -0.0151,4.470248 c 0.32633,0.0043 0.66443,0.03723 1.0118,0.105307 3.98383,0.780858 5.43283,6.836878 2.23804,9.349939 -2.10211,1.653448 -4.06886,1.754262 -6.1254,0.313821 -4.3859,-3.071929 -2.01745,-9.833547 2.87556,-9.769067 z"
           id="path913"
           inkscape:connector-curvature="0" />
        <path
           style="fill:#000000;stroke-width:0.66543823"
           d="m -134.92556,63.708574 c -2.80709,-1.273692 -2.87243,-1.370685 -1.89534,-2.813502 1.09431,-1.615826 1.38574,-1.635896 5.63101,-0.387932 2.11143,0.620699 3.01586,0.639147 3.5819,0.07319 1.28123,-1.2812 0.11845,-2.736957 -2.81751,-3.527535 -1.54063,-0.414869 -3.67587,-1.628955 -4.7449,-2.698024 -1.64069,-1.64065 -1.87353,-2.280741 -1.49344,-4.105039 0.24748,-1.188697 0.99497,-2.726884 1.66064,-3.418131 1.67736,-1.741867 6.97362,-2.174203 10.18694,-0.831586 2.50113,1.045038 2.50377,1.05032 1.37981,2.765666 -0.74655,1.139428 -1.4854,1.576177 -2.19219,1.295913 -2.672,-1.059599 -5.14389,-1.076878 -6.00279,-0.04187 -0.76817,0.925598 -0.57321,1.192356 1.50672,2.061404 1.31398,0.549021 2.67516,0.99822 3.02484,0.99822 0.34972,0 1.55709,0.775262 2.68312,1.722741 2.16757,1.823883 2.75767,5.02279 1.396,7.567158 -1.47447,2.755027 -7.33258,3.414207 -11.90481,1.339562 z"
           id="path909"
           inkscape:connector-curvature="0" />
        <path
           style="fill:#000000;stroke-width:0.66543823"
           d="M -402.51881,54.742739 V 45.09388 h 2.66173 c 2.43473,0 2.66177,0.150148 2.66177,1.760769 v 1.760768 l 1.63182,-1.760768 c 0.89749,-0.968455 2.24501,-1.760769 2.99447,-1.760769 1.14611,0 1.36265,0.422942 1.36265,2.661732 0,1.980105 -0.26861,2.66177 -1.04934,2.66177 -0.57716,0 -1.92468,0.87531 -2.99447,1.945133 -1.80762,1.807586 -1.94513,2.301641 -1.94513,6.987089 v 5.041955 h -2.66177 -2.66173 z"
           id="path907"
           inkscape:connector-curvature="0" />
        <path
           style="fill:#000000;stroke-width:0.66543823"
           d="m -368.43341,54.909109 0.18448,-9.482489 2.44425,-0.203341 c 2.09875,-0.174669 2.47499,0.0075 2.66177,1.28901 0.21013,1.44176 0.25842,1.451418 1.42059,0.283696 0.66167,-0.664763 2.51891,-1.357028 4.12719,-1.5383 2.59145,-0.291996 3.15492,-0.09884 4.95224,1.698521 2.02692,2.026885 2.02809,2.032544 2.02809,9.731779 v 7.703725 h -2.66177 -2.66173 v -6.274112 c 0,-6.973734 -0.76949,-8.600878 -3.89453,-8.235279 -2.50023,0.292374 -3.40417,2.679539 -3.41549,9.019557 l -0.0113,5.489834 h -2.68003 -2.68002 z"
           id="path905"
           inkscape:connector-curvature="0" />
        <path
           style="fill:#000000;stroke-width:0.66543829"
           d="m -290.05992,39.10442 v 12.644557 12.642661 h 6.67518 c 7.579,0 9.90727,-0.726559 13.08132,-4.080368 3.6357,-3.841508 4.4912,-8.311656 2.50125,-13.075461 -2.43349,-5.825546 -7.175,-8.131389 -16.72302,-8.131389 z m 5.32415,4.47414 3.2908,0.38988 c 6.2411,0.739136 8.68708,3.122536 8.68708,8.46677 0,1.940617 -0.49345,3.170347 -1.8988,4.743244 -1.65899,1.856672 -2.4115,2.160511 -5.98895,2.419333 l -4.09013,0.296354 v -8.158739 z"
           id="path903"
           inkscape:connector-curvature="0" />
        <path
           style="fill:#000000;stroke-width:0.66543823"
           d="m -217.52704,54.702599 v -9.689036 l 2.4954,0.206736 c 2.14037,0.17731 2.47284,0.419547 2.33688,1.703765 -0.2007,1.897561 0.0506,1.877605 2.09434,-0.16637 0.91496,-0.914998 2.2761,-1.663587 3.02473,-1.663587 1.13233,0 1.3611,0.424904 1.3611,2.52807 0,2.262594 -0.23352,2.612537 -2.22464,3.332493 -2.88179,1.042058 -3.7643,3.107649 -3.7643,8.810369 v 4.626746 h -2.66177 -2.66174 z"
           id="path899"
           inkscape:connector-curvature="0" />
        <path
           style="fill:#000000;stroke-width:0.66543823"
           d="m -482.46361,28.159713 c -3.66158,-2.488081 -4.5659,-5.528918 -4.5659,-15.353012 V 4.5021582 h 2.59496 2.59492 l 0.23314,8.7087358 c 0.23013,8.592352 0.25805,8.730163 2.10026,10.3143 2.43995,2.098224 5.36417,2.087359 7.4793,-0.02641 1.56724,-1.567198 1.63337,-1.984707 1.63337,-10.314263 V 4.5035541 h 3.01133 3.01138 l -0.43136,9.1497859 c -0.27955,5.928885 -0.78616,9.922784 -1.43934,11.345644 -2.17062,4.728643 -11.29842,6.50786 -16.2221,3.162124 z"
           id="path897"
           inkscape:connector-curvature="0" />
        <path
           style="fill:#000000;stroke-width:0.66543823"
           d="m -463.12915,29.513685 c -0.15241,-0.151279 -0.18674,-4.493273 -0.0758,-9.64882 l 0.20145,-9.373763 h 2.29395 c 1.59545,0 2.29398,0.304069 2.29398,0.998183 0,1.321038 0.45543,1.259922 2.48016,-0.332741 2.52965,-1.9898002 5.86313,-1.7406601 8.21804,0.614249 1.93513,1.935136 1.94513,1.986443 1.94513,9.981598 v 8.036427 h -2.66177 -2.66173 v -6.551244 c 0,-5.661259 -0.17731,-6.711578 -1.30406,-7.731415 -1.74451,-1.578742 -4.52229,-0.871311 -5.37387,1.368535 -0.35311,0.928578 -0.6419,4.214141 -0.6419,7.30123 v 5.612894 h -2.21815 c -1.21997,0 -2.34288,-0.12374 -2.49536,-0.275019 z"
           id="path895"
           inkscape:connector-curvature="0" />
        <path
           style="fill:#000000;stroke-width:0.66543823"
           d="m -441.11425,20.13996 v -9.648858 h 2.66173 2.66177 v 9.648858 9.648858 h -2.66177 -2.66173 z"
           id="path893"
           inkscape:connector-curvature="0" />
        <path
           style="fill:#000000;stroke-width:0.66543823"
           d="m -429.20351,20.207489 -3.72707,-9.595627 2.65498,-0.253139 c 3.00806,-0.286715 3.25727,0.06942 5.58075,7.975047 0.66809,2.273234 1.47444,4.047017 1.79186,3.941763 0.31727,-0.105255 1.39011,-2.72496 2.38373,-5.821555 l 1.80661,-5.630211 2.83127,-0.207491 c 3.33189,-0.244085 3.44793,-1.2140111 -1.27562,10.661829 l -3.2527,8.177898 -2.53336,0.173538 -2.53339,0.173538 z"
           id="path891"
           inkscape:connector-curvature="0" />
        <path
           style="fill:#000000;stroke-width:0.66543829"
           d="m -402.35067,9.8263689 c -7.35827,0 -11.96216,7.3550221 -8.91517,14.2433061 0.81917,1.851781 2.19103,3.543758 3.54425,4.368834 2.93792,1.790096 8.11274,1.80387 11.02652,0.02724 2.56432,-1.563513 2.6749,-2.180674 0.63552,-3.516907 -1.30874,-0.857517 -1.70485,-0.867898 -2.78781,-0.07606 -2.04729,1.497036 -4.86441,1.125023 -6.86233,-0.906527 l -1.79943,-1.83052 7.15281,-0.189153 7.15478,-0.189152 -0.002,-2.138553 c -0.002,-4.897758 -4.57499,-9.7925218 -9.14718,-9.7925218 z m -0.61995,3.9926291 c 1.34609,0 4.44491,2.585128 4.44491,3.708055 0,0.725361 -1.02263,0.949347 -4.326,0.949347 -2.5653,0 -4.32599,-0.283376 -4.32599,-0.695915 0,-1.026006 3.11825,-3.961487 4.20708,-3.961487 z"
           id="path889"
           inkscape:connector-curvature="0" />
        <path
           style="fill:#000000;stroke-width:0.66543823"
           d="m -389.87552,20.139847 v -9.648858 h 2.66177 c 2.4244,0 2.66177,0.154675 2.66177,1.733983 v 1.733983 l 1.93057,-2.066685 c 2.13391,-2.2844004 4.02819,-2.6997973 4.11379,-0.902171 0.0302,0.640468 0.12714,1.797287 0.21466,2.5707 0.11959,1.055035 -0.39439,1.606433 -2.05812,2.208043 -3.0557,1.104984 -4.20105,3.648295 -4.20105,9.328757 v 4.691106 h -2.66177 -2.66177 z"
           id="path885"
           inkscape:connector-curvature="0" />
        <path
           style="fill:#000000;stroke-width:0.66543823"
           d="m -374.40405,28.627284 c -2.35303,-1.171079 -2.591,-1.878435 -1.23363,-3.666743 0.81442,-1.072992 1.08235,-1.086536 3.28466,-0.16637 2.78702,1.164477 5.50447,1.301006 6.11857,0.307464 0.70501,-1.14071 -0.85294,-2.413912 -4.04857,-3.308651 -8.98771,-2.516413 -6.45018,-12.9918393 2.83867,-11.718675 3.06664,0.420339 5.51726,1.446099 5.51726,2.309375 0,0.283319 -0.39167,1.050508 -0.87041,1.705198 -0.77609,1.061335 -1.17036,1.100457 -3.63879,0.361035 -2.23132,-0.668499 -2.96772,-0.664009 -3.79587,0.02264 -1.45606,1.20839 -0.30256,2.358833 3.69786,3.687492 5.52477,1.83505 6.97,6.040665 3.32752,9.68315 -1.67932,1.679319 -2.42953,1.939324 -5.48987,1.902579 -1.94959,-0.02264 -4.51795,-0.526913 -5.7074,-1.118904 z"
           id="path883"
           inkscape:connector-curvature="0" />
        <path
           style="fill:#000000;stroke-width:0.66543823"
           d="m -357.29778,29.662513 c -0.0151,-0.113554 -0.0905,-4.473694 -0.16637,-9.689111 l -0.1377,-9.482602 2.84636,1.13e-4 2.8464,7.6e-5 -0.18448,9.482526 -0.18448,9.482488 -2.4954,0.206359 c -1.37245,0.113554 -2.50833,0.113554 -2.52414,0 z"
           id="path881"
           inkscape:connector-curvature="0" />
        <path
           style="fill:#000000;stroke-width:0.66543829"
           d="m -333.31405,3.1707554 v 4.3259143 c 0,4.5918233 -0.50654,5.1586763 -2.95546,3.3063963 -1.68411,-1.2738487 -4.60442,-1.2421071 -7.39457,0.08195 -2.55515,1.212462 -4.95375,5.468006 -4.95375,8.78648 0,3.352211 1.97788,7.463322 4.25971,8.854753 2.76197,1.684091 7.04979,1.651452 8.89571,-0.06827 0.78567,-0.731949 1.58927,-1.331442 1.7877,-1.331442 0.19844,0 0.36066,0.599493 0.36066,1.331442 0,1.109053 0.4449,1.331542 2.66305,1.331542 h 2.66109 V 16.480086 3.1707562 h -2.66109 z m -5.04539,11.3130156 c 4.19524,0 6.45648,5.348427 3.72752,8.817722 -2.90385,3.691685 -8.66369,1.369272 -8.66369,-3.493551 0,-2.799232 2.34072,-5.324171 4.93617,-5.324171 z"
           id="path879"
           inkscape:connector-curvature="0" />
        <path
           style="fill:#000000;stroke-width:0.66543829"
           d="m -316.80158,10.033087 c -1.0436,0.04612 -2.13625,0.201331 -3.26349,0.471729 -2.48763,0.596799 -3.25301,1.054953 -2.97497,1.779915 0.20598,0.536908 0.37424,1.416185 0.37424,1.953393 0,0.798327 0.71479,0.896346 3.91464,0.534214 3.44065,-0.389281 4.08678,-0.272398 5.32414,0.965019 2.17133,2.171192 1.73666,2.714888 -1.82864,2.292667 -4.69201,-0.555774 -7.97429,0.707095 -9.14914,3.518904 -1.16912,2.798135 -0.62749,5.190818 1.56938,6.918828 2.0144,1.584474 6.63809,1.770531 8.52528,0.343167 1.59968,-1.209966 2.34265,-1.275046 2.12497,-0.187153 -0.10412,0.52014 0.76723,0.91002 2.32775,1.039082 l 2.4954,0.206619 v -7.743508 c 0,-7.595279 -0.034,-7.780637 -1.86376,-9.609261 -1.76639,-1.766439 -4.44502,-2.6221591 -7.57587,-2.483615 z m 1.16972,11.123965 c 1.52087,-0.02826 2.99274,0.183361 3.283,0.653094 0.71807,1.161855 -0.29464,3.088798 -2.04311,3.885427 -2.03484,0.927288 -2.92253,0.935673 -4.44879,0.04672 -1.34492,-0.783354 -1.52284,-2.647213 -0.36443,-3.805475 0.48402,-0.484006 2.05265,-0.751612 3.57348,-0.779761 z"
           id="path875"
           inkscape:connector-curvature="0" />
        <path
           style="fill:#000000;stroke-width:0.66543829"
           d="m -288.72839,3.1707554 v 4.6359421 4.6359415 l -2.35891,-1.39193 c -5.7936,-3.41829 -12.94683,1.476075 -12.94683,8.858646 0,2.969319 2.44122,7.718551 4.55801,8.868428 2.59567,1.410097 6.55147,1.2463 8.8138,-0.364626 l 1.93393,-1.376358 v 1.376358 c 0,1.161956 0.41377,1.37636 2.66113,1.37636 h 2.66109 V 16.480087 3.1707566 h -2.66109 z m -5.04539,11.3130156 c 4.19524,0 6.45452,5.348427 3.72556,8.817722 -2.90386,3.691685 -8.66173,1.369272 -8.66173,-3.493551 0,-2.799232 2.34072,-5.324171 4.93617,-5.324171 z"
           id="path871"
           inkscape:connector-curvature="0" />
        <path
           style="fill:#000000;stroke-width:0.66543829"
           d="m -270.68554,9.9238889 c -3.18978,0.046014 -6.42407,1.6878841 -8.26599,5.2383291 -0.8632,1.664028 -1.12547,3.329554 -0.93382,5.916878 0.23767,3.20678 0.56701,3.879438 3.0062,6.154638 2.50457,2.336187 3.05917,2.555782 6.48802,2.555782 3.66961,0 7.61484,-1.513606 7.61484,-2.920409 0,-0.349754 -0.48662,-1.172935 -1.08005,-1.828624 -0.99716,-1.101766 -1.23064,-1.113545 -3.0861,-0.154015 -2.3617,1.221345 -5.58781,0.790141 -6.88768,-0.922098 -0.48527,-0.63922 -0.89131,-1.386341 -0.90263,-1.661034 -0.0113,-0.274593 2.9724,-0.499078 6.63232,-0.499078 h 6.65371 l -0.002,-2.828778 c -0.004,-5.776636 -4.57483,-9.1188661 -9.23685,-9.0515911 z m -0.0264,3.9574941 c 0.49266,-0.05131 0.97857,0.172881 1.80913,0.637523 0.9897,0.553778 1.89496,1.670516 2.01195,2.481719 0.19994,1.385941 -0.034,1.475775 -3.87567,1.475775 -3.43628,0 -4.05249,-0.173979 -3.87178,-1.093681 0.11846,-0.601689 1.05304,-1.718427 2.07627,-2.481718 0.85871,-0.640518 1.35744,-0.968313 1.8501,-1.019618 z"
           id="path867"
           inkscape:connector-curvature="0" />
        <path
           style="fill:#000000;stroke-width:0.66543823"
           d="M -246.80631,17.145375 V 4.502045 h 9.691 9.69103 l -0.20862,2.1626973 -0.20862,2.1626595 -6.82072,0.1897599 -6.82076,0.1897599 v 2.6384554 2.638493 h 5.98894 5.98895 v 2.661731 2.66177 h -5.98895 -5.98894 v 4.990799 4.990762 h -2.66177 -2.66173 z"
           id="path863"
           inkscape:connector-curvature="0" />
        <path
           style="fill:#000000;stroke-width:0.66543829"
           d="m -216.01303,9.9589243 c -1.60394,-0.08065 -3.26236,0.2582247 -4.8348,1.1015657 -2.54833,1.366677 -5.33705,5.925761 -5.31441,8.685067 0.0264,2.900047 2.41655,7.261695 4.77048,8.696845 2.93124,1.786203 8.10807,1.798081 11.01871,0.02335 2.53128,-1.543351 2.62891,-1.975055 0.80322,-3.538368 -1.23129,-1.054254 -1.49537,-1.068428 -2.80928,-0.148126 -0.79778,0.558768 -2.21728,1.017621 -3.15239,1.017621 -2.04548,0 -4.65738,-1.701958 -4.65738,-3.0334 0,-0.772973 1.29852,-0.959229 6.65371,-0.959229 h 6.65567 l -0.002,-2.163906 c -0.003,-5.429776 -4.31966,-9.439274 -9.1316,-9.6814268 z m -0.63553,3.8600737 c 1.34613,0 4.44491,2.585128 4.44491,3.708055 0,0.725361 -1.02259,0.949347 -4.32599,0.949347 -2.56531,0 -4.32404,-0.283376 -4.32404,-0.695915 0,-1.026006 3.11629,-3.961487 4.20512,-3.961487 z"
           id="path861"
           inkscape:connector-curvature="0" />
        <path
           style="fill:#000000;stroke-width:0.66543829"
           d="m -188.91267,3.1707554 v 4.6592988 c 0,2.5619708 -0.17694,4.6574018 -0.39378,4.6574018 -0.21692,0 -1.15546,-0.599493 -2.086,-1.331442 -2.10758,-1.6580388 -5.17,-1.7012592 -8.12758,-0.115089 -5.80782,3.11475 -6.36604,13.246346 -0.95332,17.280599 2.5862,1.927741 7.54373,2.000906 9.23101,0.13645 0.66242,-0.731949 1.45692,-1.331442 1.76627,-1.331442 0.30935,0 0.5634,0.599493 0.5634,1.331442 0,1.077411 0.44237,1.331542 2.32774,1.331542 h 2.32971 V 16.480086 3.1707554 h -2.32971 z m -5.12141,11.2506306 c 1.61568,0.0043 3.2266,0.990871 4.20124,2.875591 1.13818,2.201038 0.78873,4.796845 -0.89874,6.669289 -0.59715,0.662676 -1.99802,1.163951 -3.24983,1.163951 -4.40153,0 -6.45867,-5.176344 -3.53452,-8.893782 0.96589,-1.227933 2.22525,-1.818343 3.48185,-1.815049 z"
           id="path857"
           inkscape:connector-curvature="0" />
        <path
           style="fill:#000000;stroke-width:0.66543829"
           d="m -170.49743,9.9472456 c -4.49656,-0.1574102 -9.11821,2.7440344 -9.62483,8.8528574 -0.38246,4.611886 0.68778,7.271376 3.77234,9.367407 3.35943,2.282686 8.90449,2.282586 11.72444,-0.0019 l 1.99633,-1.618113 -1.43093,-1.456312 c -1.34915,-1.372267 -1.52306,-1.394625 -2.97693,-0.376306 -0.84906,0.594702 -2.30892,1.082003 -3.24403,1.082003 -2.04545,0 -4.65742,-1.701958 -4.65742,-3.0334 0,-0.772973 1.29856,-0.959229 6.65375,-0.959229 h 6.6537 v -2.35695 c 0,-6.126589 -4.36987,-9.342652 -8.86642,-9.5000614 z m -0.81295,4.0609034 c 0.27238,0.0049 0.56226,0.04901 0.87923,0.128663 1.81026,0.454361 3.41877,2.087746 3.4565,3.507226 0.0151,0.575238 -1.20937,0.832363 -3.97119,0.832363 -4.44333,0 -5.11582,-0.872988 -2.60454,-3.384352 0.76266,-0.762792 1.42263,-1.098772 2.24,-1.0839 z"
           id="path853"
           inkscape:connector-curvature="0" />
        <path
           style="fill:#000000;stroke-width:0.66543823"
           d="m -158.30304,20.178139 v -9.68715 h 2.66177 c 2.21812,0 2.66173,0.221827 2.66173,1.330885 0,1.67415 0.48746,1.681469 1.88968,0.03018 0.60765,-0.71641 1.92827,-1.497481 2.93475,-1.735756 1.76862,-0.4187168 1.82996,-0.3421715 1.82996,2.287984 0,2.319032 -0.23654,2.780568 -1.60047,3.122928 -3.16179,0.793558 -4.26289,2.852699 -4.60245,8.607065 l -0.31426,5.323501 -2.73039,0.204473 -2.73043,0.204473 V 20.17961 Z"
           id="path849"
           inkscape:connector-curvature="0" />
        <path
           style="fill:#000000;stroke-width:0.66543829"
           d="m -137.01628,10.074012 c -2.39108,0.02426 -4.89678,0.412239 -5.93631,1.054653 -0.58102,0.359137 -0.73905,1.153271 -0.45422,2.288775 0.42223,1.682394 0.55615,1.725913 4.09399,1.310081 2.98896,-0.35135 3.89871,-0.211811 4.97714,0.764189 2.32077,2.100323 1.6076,2.658592 -3.39414,2.655298 -4.3418,-0.0031 -4.84174,0.144135 -6.32229,1.86366 -2.23068,2.590817 -2.16575,5.997229 0.15392,8.14716 2.11166,1.956987 6.68355,2.231181 9.24078,0.555574 1.51005,-0.989274 1.64148,-0.989274 1.64148,0 0,0.814796 0.6605,1.076114 2.73323,1.076114 h 2.73326 l -0.25541,-7.486181 c -0.30105,-8.832095 -1.15666,-10.721108 -5.37484,-11.857011 -1.00864,-0.271598 -2.40199,-0.386885 -3.83666,-0.372314 z m 0.14412,11.157103 c 0.30972,-0.0076 0.63635,0.0029 0.9806,0.03124 2.01447,0.165793 2.58503,0.505866 2.74691,1.641469 0.12789,0.898042 -0.36141,1.829623 -1.31206,2.495394 -2.69972,1.890909 -5.87976,0.997858 -5.87976,-1.651252 0,-1.546545 1.29557,-2.463552 3.46431,-2.516854 z"
           id="path847"
           inkscape:connector-curvature="0" />
        <path
           style="fill:#000000;stroke-width:0.66543823"
           d="M -123.70026,16.479933 V 3.171198 h 2.66177 2.66177 v 13.308735 13.308772 h -2.66177 -2.66177 z"
           id="path843"
           inkscape:connector-curvature="0" />
        <path
           style="fill:#000000;stroke-width:0.66543823"
           d="m -441.25674,5.8291573 c -0.3682,-2.5087922 -0.20447,-2.6579593 2.91514,-2.6579593 2.47163,0 2.55085,0.072433 2.55085,2.3290295 0,2.2622174 -0.0743,2.3290295 -2.58624,2.3290295 -2.36592,0 -2.61122,-0.1705198 -2.87975,-2.0000997 z"
           id="path841"
           inkscape:connector-curvature="0" />
        <path
           style="fill:#000000;stroke-width:0.66543823"
           d="m -357.93448,5.5001898 c 0,-2.316731 0.0151,-2.3290296 2.99448,-2.3290296 2.97862,0 2.99447,0.011318 2.99447,2.3290296 0,2.3166932 -0.0151,2.3290295 -2.99447,2.3290295 -2.97863,0 -2.99448,-0.011318 -2.99448,-2.3290295 z"
           id="path839"
           inkscape:connector-curvature="0" />
      </g>
      <g
         id="g909">
        <path
           style="fill:#005d37;fill-opacity:1;stroke-width:0.66543823"
           d="m -432.19617,-21.107847 c -8.08717,-1.759448 -15.11557,-7.039867 -16.96997,-12.749528 -0.59188,-1.822261 -0.909,-10.417367 -1.09518,-29.681659 l -0.26219,-27.116617 h 7.34367 7.34371 l 0.18901,25.558436 0.189,25.558435 2.05084,2.556327 c 3.16518,3.945309 6.54604,4.82126 18.74413,4.856232 l 10.14793,0.03018 v -29.279314 -29.279277 h 7.31983 7.31979 v 35.26822 35.268259 l -19.13134,-0.05282 c -13.22982,-0.03773 -20.38312,-0.325195 -23.18931,-0.935747 z"
           id="path837"
           inkscape:connector-curvature="0" />
        <path
           style="fill:#005d37;fill-opacity:1;stroke-width:0.66543823"
           d="m -375.03094,-43.575875 c 0.19995,-12.901185 0.68457,-24.92672 1.07707,-26.723365 1.719,-7.868548 6.00486,-13.662413 12.31191,-16.64402 6.2185,-2.93977 12.24694,-3.712391 28.96608,-3.712391 h 15.33313 v 5.944692 5.944729 l -15.47144,0.210509 c -15.43574,0.210132 -15.48026,0.215036 -19.29858,2.089962 -4.58189,2.249919 -7.00124,5.808201 -7.76227,11.416455 l -0.49844,3.672855 20.51724,0.08337 c 11.28445,0.04565 20.89151,0.120722 21.34897,0.16637 0.59769,0.05961 0.83181,1.768955 0.83181,6.072129 v 5.988944 h -21.12797 -21.12801 l -0.10752,7.985271 c -0.0592,4.391867 -0.0264,10.271293 0.0698,13.065291 0.28445,8.156772 0.55083,7.896013 -8.07095,7.896013 h -7.35423 z"
           id="path835"
           inkscape:connector-curvature="0" />
        <path
           style="fill:#005d37;fill-opacity:1;stroke-width:0.66543823"
           d="m -283.35124,-21.176206 c -8.21401,-2.208421 -14.69625,-8.320916 -17.97491,-16.949636 -3.12998,-8.237466 -3.20287,-23.254191 -0.16033,-33.029883 1.51087,-4.854459 5.16943,-10.491838 8.52727,-13.13946 2.96954,-2.341441 8.83044,-4.800624 13.59421,-5.704078 1.9036,-0.361034 11.95446,-0.656388 22.33519,-0.656388 h 18.87417 v 5.988944 5.988944 l -17.80046,0.0037 c -10.86441,0.0023 -18.83761,0.288601 -20.46219,0.73497 -3.80505,1.04534 -7.74436,5.376733 -9.35234,10.283291 -1.96011,5.98087 -1.80675,20.428127 0.27276,25.703339 1.71078,4.339731 4.85442,7.454811 8.56225,8.484495 1.38245,0.383896 7.22985,0.699697 12.99418,0.701734 l 10.48067,0.0037 v -8.317973 -8.318011 h -9.98156 -9.98156 v -6.321646 -6.321647 h 17.63409 17.63409 v 20.961304 20.961303 l -20.79494,-0.04376 c -16.00509,-0.03395 -21.62542,-0.267098 -24.40067,-1.013235 z"
           id="path832"
           inkscape:connector-curvature="0" />
        <path
           style="fill:#fed326;fill-opacity:1;stroke-width:0.66543829"
           d="m -224.84634,-90.753553 v 35.3176 35.315706 l 20.79366,-0.006 c 15.22082,-0.0057 21.68812,-0.246235 24.12342,-0.896746 10.69499,-2.856924 17.99034,-11.064874 20.30824,-22.846525 1.24227,-6.31424 0.54057,-21.383721 -1.25355,-26.922998 -2.92257,-9.023243 -8.37124,-14.76634 -17.05836,-17.980405 -3.7551,-1.389235 -5.26929,-1.492747 -25.45299,-1.729207 z m 14.63902,12.075409 h 10.95632 c 12.36982,0 15.88573,0.753109 19.46016,4.162216 3.18106,3.033797 4.27077,6.908144 4.675,16.625508 0.58999,14.184513 -1.55653,20.907303 -7.63243,23.899277 -2.89672,1.426467 -4.17577,1.579188 -14.83002,1.768238 -6.41317,0.113592 -11.87957,-0.01056 -12.14554,-0.276906 -0.26634,-0.266116 -0.48349,-10.766223 -0.48349,-23.331925 z"
           id="path830"
           inkscape:connector-curvature="0" />
      </g>
    </g>
    <g
       transform="matrix(1.6135148,0,0,1.6135148,-744.07782,5.2383844)"
       id="g1006"
       style="fill:#005d37;fill-opacity:1">
      <text
         xml:space="preserve"
         style="font-style:normal;font-variant:normal;font-weight:normal;font-stretch:normal;font-size:27.37709808px;line-height:125%;font-family:'HandelGothic BT';-inkscape-font-specification:'HandelGothic BT';letter-spacing:6.09824848px;word-spacing:0px;display:inline;fill:#005d37;fill-opacity:1;stroke:none;stroke-width:0.6844275px;stroke-linecap:butt;stroke-linejoin:miter;stroke-opacity:1"
         x="235.57364"
         y="195.62097"
         id="text909"><tspan
           sodipodi:role="line"
           id="tspan907"
           x="235.57364"
           y="195.62097"
           style="fill:#005d37;fill-opacity:1;stroke-width:0.6844275px">EAD|UFGD</tspan></text>
      <text
         id="text991"
         y="213.76347"
         x="329.44794"
         style="font-style:normal;font-variant:normal;font-weight:normal;font-stretch:normal;font-size:11.38461685px;line-height:125%;font-family:'HandelGothic BT';-inkscape-font-specification:'HandelGothic BT';text-align:center;letter-spacing:2.53592372px;word-spacing:0px;text-anchor:middle;display:inline;fill:#005d37;fill-opacity:1;stroke:none;stroke-width:0.28461546px;stroke-linecap:butt;stroke-linejoin:miter;stroke-opacity:1"
         xml:space="preserve"><tspan
           style="text-align:center;text-anchor:middle;fill:#005d37;fill-opacity:1;stroke-width:0.28461546px"
           y="213.76347"
           x="330.71591"
           id="tspan989"
           sodipodi:role="line">Faculdade de Educação</tspan><tspan
           id="tspan999"
           style="text-align:center;text-anchor:middle;fill:#005d37;fill-opacity:1;stroke-width:0.28461546px"
           y="227.99425"
           x="330.71591"
           sodipodi:role="line">a Distância</tspan></text>
    </g>
    <g
       id="g913"
       transform="translate(-3.787849e-6)">
      <g
         transform="matrix(0.89135125,0,0,0.89135125,-162.1992,-17.937915)"
         id="g892"
         style="fill:#fdfdfd;fill-opacity:1">
        <text
           xml:space="preserve"
           style="font-style:normal;font-variant:normal;font-weight:normal;font-stretch:normal;font-size:34.05526352px;line-height:125%;font-family:'HandelGothic BT';-inkscape-font-specification:'HandelGothic BT';text-align:center;letter-spacing:7.58581018px;word-spacing:0px;text-anchor:middle;display:inline;fill:#fdfdfd;fill-opacity:1;stroke:none;stroke-width:0.85138172px;stroke-linecap:butt;stroke-linejoin:miter;stroke-opacity:1"
           x="333.24231"
           y="192.15178"
           id="text884"><tspan
             sodipodi:role="line"
             id="tspan882"
             x="337.03522"
             y="192.15178"
             style="text-align:center;text-anchor:middle;fill:#fdfdfd;fill-opacity:1;stroke-width:0.85138172px">EAD</tspan><tspan
             id="tspan904"
             sodipodi:role="line"
             x="337.03522"
             y="234.72086"
             style="text-align:center;text-anchor:middle;fill:#fdfdfd;fill-opacity:1;stroke-width:0.85138172px">UFGD</tspan></text>
        <rect
           rx="0"
           ry="1.7990855"
           y="199.54828"
           x="276.67816"
           height="3.598171"
           width="114.54178"
           id="rect906"
           style="opacity:0.95999995;fill:#fdfdfd;fill-opacity:1;stroke:none;stroke-width:1.78229833;stroke-linecap:round;stroke-linejoin:miter;stroke-miterlimit:4;stroke-dasharray:none;stroke-opacity:1" />
      </g>
    </g>
  </g>
</svg>
